<?xml version="1.0" encoding="UTF-8"?>
<svg xmlns="http://www.w3.org/2000/svg" xmlns:xlink="http://www.w3.org/1999/xlink" width="px" height="px" viewBox="0 0 256 256" version="1.1">
<g id="surface1">
<path fill="#6d7769" style="stroke:none;" d="M 68.851562 0.5 C 61.75 2.300781 56.101562 8.648438 55.199219 15.800781 C 54.851562 18.800781 55.648438 23.351562 57.101562 26.25 C 57.75 27.550781 75.5 45.648438 107.898438 78.101562 L 157.75 128 L 107.898438 177.851562 C 75.5 210.351562 57.75 228.449219 57.101562 229.75 C 52.5 239.050781 56.351562 250 65.75 254.351562 C 68.300781 255.5 69.398438 255.75 73 255.699219 C 81 255.699219 75.601562 260.5 140.101562 196.101562 C 179 157.25 197.851562 138.101562 198.699219 136.550781 C 200.648438 132.898438 201.351562 128.648438 200.550781 124.851562 C 200.199219 123.148438 199.351562 120.699219 198.699219 119.449219 C 197.851562 117.898438 179 98.75 140.101562 59.898438 C 89 8.898438 82.449219 2.550781 80.101562 1.550781 C 77.050781 0.300781 71.699219 -0.199219 68.851562 0.5 Z M 68.851562 0.5 "/>
</g>
</svg>
