<?xml version="1.0" encoding="UTF-8"?>
<svg xmlns="http://www.w3.org/2000/svg" xmlns:xlink="http://www.w3.org/1999/xlink" width="px" height="px" viewBox="0 0 256 256" version="1.1">
<g id="surface1">
<path fill="#6d7769" style=" stroke:none;" d="M 178.449219 0.648438 C 177.199219 1 175.199219 1.898438 173.949219 2.601562 C 170.800781 4.5 58.351562 117.199219 57.101562 119.800781 C 56.550781 120.898438 55.800781 123.199219 55.449219 124.898438 C 54.648438 128.648438 55.351562 132.898438 57.300781 136.550781 C 58.148438 138.101562 77 157.25 115.898438 196.101562 C 180.398438 260.5 175 255.699219 183 255.699219 C 186.601562 255.699219 187.699219 255.5 190.351562 254.300781 C 199.550781 250.101562 203.449219 238.898438 198.898438 229.75 C 198.25 228.449219 180.5 210.351562 148.101562 177.851562 L 98.25 128 L 148.101562 78.101562 C 180.5 45.648438 198.25 27.550781 198.898438 26.25 C 204.648438 14.601562 196.949219 1.050781 184.148438 0.199219 C 182.148438 0.101562 179.800781 0.300781 178.449219 0.648438 Z M 178.449219 0.648438 "/>
</g>
</svg>
